<svg width="184" height="192" viewBox="0 0 184 192" fill="none" xmlns="http://www.w3.org/2000/svg">
<path d="M118.594 18.5437L91.7125 32.1999L63.3937 17.6812L5.75 52.0374L32.4875 67.4187V131.1L91.7125 99.6187L150.075 131.1V67.4187L178.25 51.1749L118.594 18.5437Z" fill="white"/>
<path d="M32.4875 132.538C32.2 132.538 31.9125 132.538 31.7688 132.394C31.3375 132.106 31.05 131.675 31.05 131.1V68.1375L5.03125 53.1875C4.6 53.0438 4.3125 52.4688 4.3125 52.0375C4.3125 51.6063 4.6 51.0312 5.03125 50.7438L62.675 16.3875C63.1062 16.1 63.6812 16.1 64.1125 16.3875L91.8563 30.6188L117.875 17.25C118.306 16.9625 118.738 17.1063 119.169 17.25L178.825 49.8813C179.256 50.1688 179.544 50.6 179.544 51.175C179.544 51.75 179.256 52.1813 178.825 52.4688L151.369 68.2813V131.244C151.369 131.819 151.081 132.25 150.65 132.538C150.219 132.825 149.644 132.825 149.213 132.538L91.7125 101.2L33.2063 132.394C32.9188 132.538 32.775 132.538 32.4875 132.538ZM8.625 52.0375L33.2063 66.125C33.6375 66.4125 33.925 66.8438 33.925 67.4188V128.8L90.9938 98.325C91.425 98.0375 92 98.0375 92.2875 98.325L148.494 128.8V67.4188C148.494 66.8438 148.781 66.4125 149.213 66.125L175.375 51.175L118.45 20.2688L93.4375 32.9188C93.4375 33.0625 93.2938 33.0625 93.2938 33.2063C92.8625 33.925 92 34.0688 91.2812 33.6375L90.9938 33.35H90.85L63.3937 19.2625L8.625 52.0375Z" fill="#6A576D"/>
<path d="M91.7125 32.2L150.075 67.4187V131.1L91.7125 99.6187V32.2Z" fill="#121519"/>
<path d="M91.7125 32.2L32.4875 67.4187V131.1L91.7125 99.6187V32.2Z" fill="#121519"/>
<path d="M150.075 132.538C149.788 132.538 149.644 132.538 149.356 132.394L90.9938 100.769C90.5625 100.481 90.275 100.05 90.275 99.4751V32.2C90.275 31.625 90.5625 31.1938 90.9938 30.9063C91.425 30.6188 92 30.6188 92.4313 30.9063L150.794 66.125C151.225 66.4126 151.513 66.8438 151.513 67.4188V131.244C151.513 131.819 151.225 132.25 150.794 132.538H150.075ZM93.15 98.7563L148.638 128.8V68.1376L93.15 34.7876V98.7563Z" fill="#6A576D"/>
<path d="M32.4875 132.538C32.2 132.538 31.9125 132.538 31.7688 132.394C31.3375 132.106 31.05 131.675 31.05 131.1V67.4188C31.05 66.8438 31.3375 66.4126 31.7688 66.125L90.9938 30.9063C91.425 30.6188 92.0001 30.6188 92.4313 30.9063C92.8626 31.1938 93.1501 31.625 93.1501 32.2V99.6188C93.1501 100.194 92.8626 100.625 92.4313 100.913L33.2063 132.538H32.4875ZM33.925 68.1376V128.8L90.275 98.7563V34.7876L33.925 68.1376Z" fill="#6A576D"/>
<path d="M91.7125 98.8999L66.8438 89.1249L32.4875 67.2749V131.1L91.7125 166.319L150.075 131.1V67.2749L123.769 86.8249L91.7125 98.8999Z" fill="#D6AB7F"/>
<path d="M91.7126 167.756C91.425 167.756 91.1376 167.756 90.9938 167.612L31.7688 132.394C31.3375 132.106 31.05 131.675 31.05 131.1V67.275C31.05 66.7 31.3375 66.2688 31.7688 65.9813C32.2 65.6938 32.775 65.6938 33.2063 65.9813L67.5625 87.8312L91.8563 97.4625L123.194 85.5312L149.213 66.125C149.644 65.8375 150.219 65.6938 150.65 65.9813C151.081 66.2688 151.369 66.7 151.369 67.275V131.1C151.369 131.675 151.081 132.106 150.65 132.394L92.2876 167.612C92.2876 167.612 92 167.756 91.7126 167.756ZM33.925 130.381L91.7126 164.737L148.638 130.381V70.15L124.631 87.975C124.488 88.1187 124.344 88.1187 124.344 88.1187L92.2876 100.338C92.0001 100.481 91.5688 100.481 91.2813 100.338L66.4126 90.5625C66.2688 90.5625 66.2688 90.4187 66.125 90.4187L33.925 70.0062V130.381Z" fill="#6A576D"/>
<path d="M91.7125 166.319L150.075 131.1V67.2749L119.6 88.9812L91.7125 98.8999V166.319Z" fill="#121519"/>
<path d="M91.7125 167.756C91.425 167.756 91.2813 167.756 90.9938 167.612C90.5625 167.325 90.275 166.894 90.275 166.319V98.8999C90.275 98.3249 90.7063 97.7499 91.2813 97.6061L119.025 87.6874L149.213 66.1249C149.644 65.8374 150.219 65.8374 150.65 65.9811C151.081 66.2686 151.369 66.6999 151.369 67.2749V131.1C151.369 131.675 151.081 132.106 150.65 132.394L92.2875 167.612C92.2875 167.612 92 167.756 91.7125 167.756ZM93.15 99.9061V163.731L148.638 130.381V70.1499L120.463 90.1311C120.319 90.2749 120.175 90.2749 120.175 90.2749L93.15 99.9061Z" fill="#6A576D"/>
<path d="M45.425 108.531L91.7125 134.694V98.8999L65.2626 89.9874L32.4875 67.2749L45.425 108.531Z" fill="#121519"/>
<path d="M5.75 82.6562L32.4875 67.2749L91.7125 98.8999L63.25 115.144L5.75 82.6562Z" fill="white"/>
<path d="M118.45 124.631L150.075 108.387V67.4187L124.344 86.3937L92.1438 98.6124L91.7125 98.9L118.45 124.631Z" fill="#121519"/>
<path d="M91.7125 98.9L118.45 114.281L178.25 83.5187L150.075 67.4187L91.7125 98.9Z" fill="white"/>
<path d="M63.25 116.581C62.9625 116.581 62.8188 116.581 62.5313 116.438L5.03125 83.9501C4.6 83.6625 4.3125 83.2313 4.3125 82.6563C4.3125 82.0813 4.6 81.65 5.03125 81.3625L31.7688 66.125C32.2 65.8375 32.775 65.8375 33.2063 66.125L92.4313 97.75C92.8625 98.0375 93.15 98.4688 93.15 99.0438C93.15 99.6188 92.8625 100.05 92.4313 100.338L63.9688 116.438C63.825 116.581 63.5375 116.581 63.25 116.581ZM8.625 82.6563L63.25 113.563L88.6938 99.0438L32.4875 69L8.625 82.6563Z" fill="#6A576D"/>
<path d="M118.45 115.719C118.163 115.719 118.019 115.719 117.731 115.575L90.9938 100.194C90.5625 99.9062 90.275 99.475 90.275 98.9C90.275 98.325 90.5625 97.8937 90.9938 97.6062L149.356 65.9813C149.788 65.6938 150.363 65.6938 150.794 65.9813L178.969 82.225C179.4 82.5125 179.688 82.9437 179.688 83.5187C179.688 84.0937 179.4 84.525 178.969 84.8125L119.169 115.575C118.881 115.719 118.738 115.719 118.45 115.719ZM94.7313 98.9L118.594 112.556L175.375 83.375L149.931 69L94.7313 98.9Z" fill="#6A576D"/>
<ellipse cx="92.5" cy="174" rx="72.5" ry="18" fill="url(#paint0_radial_330_32)"/>
<defs>
<radialGradient id="paint0_radial_330_32" cx="0" cy="0" r="1" gradientUnits="userSpaceOnUse" gradientTransform="translate(92.5 174) scale(72.5 18)">
<stop stop-color="#6A6A6A"/>
<stop offset="1" stop-color="#8B8B8B" stop-opacity="0"/>
</radialGradient>
</defs>
</svg>
